<svg xmlns="http://www.w3.org/2000/svg" xmlns:xlink="http://www.w3.org/1999/xlink" fill="none" version="1.1" width="20" height="20.0400390625" viewBox="0 0 20 20.0400390625"><path d="M15.169116,2.602077C13.491025,0.9239859,11.257713,0,8.8835239,0C6.5093355,0,4.2760243,0.9239859,2.5979331,2.602077C-0.86597788,6.0659885,-0.86597788,11.705203,2.5979338,15.169116C4.2760248,16.847206,6.5093365,17.771193,8.8835249,17.771193C11.257713,17.771193,13.491025,16.847206,15.169116,15.169116C18.633026,11.705204,18.633026,6.0659895,15.169116,2.602077ZM14.112539,14.112538C12.716203,15.508876,10.859942,16.279556,8.8835239,16.279556C6.9071054,16.279556,5.0508466,15.508878,3.6545091,14.112538C0.77482235,11.232851,0.77482235,6.5424838,3.6586528,3.6586528C5.0549903,2.2623155,6.9112492,1.4916364,8.8876677,1.4916364C10.864086,1.4916364,12.720345,2.2623155,14.116682,3.6586528C16.99637,6.5424838,16.99637,11.232851,14.112539,14.112538ZM19.776613,18.761471L17.000515,15.985371C16.785053,15.769912,16.308559,15.653897,15.94808,15.985371C15.608319,16.296129,15.732623,16.855492,15.94808,17.07095L18.724182,19.847052C18.831913,19.954781,19.399561,20.236536,19.801474,19.818048C20.13295,19.478287,19.996216,18.976931,19.776613,18.761471Z" fill="#00359F" fill-opacity="1" style="mix-blend-mode:passthrough"/></svg>