<svg xmlns="http://www.w3.org/2000/svg" xmlns:xlink="http://www.w3.org/1999/xlink" fill="none" version="1.1" width="14" height="14" viewBox="0 0 14 14"><path d="M0.000026473897,9.446528403125C-0.0034110129,10.283244103125,0.32815021,11.086522103125,0.91924167,11.677614203125C1.5103333,12.268705203125,2.3136115,12.600111203125,3.1501708,12.596673203125L9.9115505,12.596673203125L9.9115505,11.197147403125L3.1501708,11.197147403125C2.6853287,11.202459303125,2.2379868,11.019960403125,1.9083005,10.690274203125C1.580333,10.362150203125,1.3961149,9.913246203125,1.4014274,9.448404303125C1.3961149,8.983717903125001,1.5786142,8.536376003125,1.9083005,8.206689803125C2.2364242,7.878722703125,2.6853287,7.694504303125,3.1501708,7.699816703125L10.849985,7.699816703125C11.686544,7.703254703125,12.489822,7.371849103125,13.080914,6.780757903125C13.672006,6.189665803125,14.003411,5.386231903125,13.999973,4.549672603125C14.003411,3.712957103125,13.671849,2.9098351031250003,13.080757,2.318743703125C12.489667,1.727652193125,11.686388,1.396247223025,10.849829,1.39968469739L4.0884485,1.39968469739L4.0884485,2.798898003125L10.84811,2.798898003125C11.312796,2.793585703125,11.760139,2.976084903125,12.089825,3.305771103125C12.417791,3.633894903125,12.60201,4.082799203125,12.596697,4.547641303124999C12.60201,5.012483403125,12.419511,5.459825503125,12.089825,5.789511703125C11.761856,6.117478803125,11.312952,6.301697303125,10.84811,6.296384303125L3.1501708,6.296384303125C1.3997087,6.296384303125,0.000026473897,7.696066403125,0.000026473897,9.446528403125Z" fill="#FF8400" fill-opacity="1"/><ellipse cx="2.1875" cy="2.1875" rx="1.6875" ry="1.6875" fill-opacity="0" stroke-opacity="1" stroke="#FF8400" fill="none" stroke-width="1"/><ellipse cx="11.8125" cy="11.8125" rx="1.6875" ry="1.6875" fill-opacity="0" stroke-opacity="1" stroke="#FF8400" fill="none" stroke-width="1"/></svg>